<?xml version="1.0" encoding="utf-8"?>
<!-- Generator: Adobe Illustrator 25.0.0, SVG Export Plug-In . SVG Version: 6.00 Build 0)  -->
<svg version="1.1" id="Layer_1" xmlns="http://www.w3.org/2000/svg" xmlns:xlink="http://www.w3.org/1999/xlink" x="0px" y="0px"
	 viewBox="0 0 512 512" style="enable-background:new 0 0 512 512;" xml:space="preserve">
<style type="text/css">
	.st0{fill:#FFFFFF;}
	.st1{fill:#08519C;}
</style>
<circle class="st0" cx="91.6" cy="264.2" r="63.5"/>
<path class="st1" d="M91.6,205c32.6,0,59.2,26.5,59.2,59.2s-26.5,59.2-59.2,59.2s-59.2-26.5-59.2-59.2S58.9,205,91.6,205
	 M91.6,196.4c-37.5,0-67.8,30.4-67.8,67.8S54.1,332,91.6,332s67.8-30.4,67.8-67.8S129,196.4,91.6,196.4L91.6,196.4z"/>
<circle class="st0" cx="406.2" cy="264.2" r="63.5"/>
<path class="st1" d="M406.2,205c32.6,0,59.2,26.5,59.2,59.2s-26.5,59.2-59.2,59.2S347,296.8,347,264.2S373.5,205,406.2,205
	 M406.2,196.4c-37.5,0-67.8,30.4-67.8,67.8s30.4,67.8,67.8,67.8s67.8-30.4,67.8-67.8S443.6,196.4,406.2,196.4L406.2,196.4z"/>
<path class="st0" d="M247.4,506.7c-114.8,0-166-47-166-152.3c0-63.8,19.3-141.5,50.5-202.8c16.1-31.7,34.9-57.9,54.4-75.9
	c21.2-19.6,43-29.5,64.8-29.5c93.6,0,169.6,186.4,169.6,308.1c0,57.2-16.7,97-50.9,121.9C341.4,496.7,301.4,506.7,247.4,506.7z"/>
<path class="st1" d="M251,50.6c20.6,0,41.3,9.7,61.8,28.8c19,17.8,37.5,44,53.5,75.6c30.8,61.2,50,137.6,50,199.4
	c0,28.9-4.5,53.8-13.5,73.9c-8.1,18.2-20.1,33.2-35.7,44.4c-27.5,19.9-66.6,29.6-119.7,29.6c-52.2,0-90.1-9.6-115.9-29.4
	c-30.8-23.6-45.7-62.4-45.7-118.5c0-63.2,19.2-140.1,50-200.8c15.9-31.2,34.3-57,53.4-74.6C209.6,60.2,230.4,50.6,251,50.6 M251,42
	C155,42,77.1,225,77.1,354.4c0,125.5,74.3,156.6,170.3,156.6s177.5-31.1,177.5-156.6S347.1,42,251,42L251,42z"/>
<path class="st1" d="M343.4,454.7c-1.7,0-3.5-0.5-5-1.6c-0.3-0.2-35.4-24.4-85.9-24.4c-50.1,0-80.9,23.9-81.2,24.1
	c-3.7,3-9.2,2.3-12.2-1.4c-3-3.7-2.4-9.2,1.4-12.1c1.4-1.1,35.5-27.9,92-27.9c56.2,0,94.3,26.4,95.9,27.6c3.9,2.8,4.8,8.2,2.1,12.1
	C348.8,453.4,346.1,454.7,343.4,454.7z"/>
<path class="st1" d="M327.5,187H173.1c-4.8,0-8.7-3.9-8.7-8.7s3.9-8.7,8.7-8.7h154.4c4.8,0,8.7,3.9,8.7,8.7S332.3,187,327.5,187z"/>
<path class="st0" d="M309.5,320.5c-21.6,0-41.6-10.9-53.4-29.1l-3.6-5.6l-3.6,5.6c-11.8,18.2-31.7,29.1-53.4,29.1
	c-35,0-63.5-28.5-63.5-63.5s28.5-63.5,63.5-63.5c21.6,0,41.6,10.9,53.4,29.1l3.6,5.6l3.6-5.6c11.8-18.2,31.7-29.1,53.4-29.1
	c35,0,63.5,28.5,63.5,63.5S344.5,320.5,309.5,320.5z"/>
<path class="st1" d="M309.5,197.8c32.6,0,59.2,26.5,59.2,59.2s-26.5,59.2-59.2,59.2c-20.2,0-38.8-10.1-49.7-27.1l-7.3-11.3
	l-7.3,11.3c-11,17-29.6,27.1-49.7,27.1c-32.6,0-59.2-26.5-59.2-59.2s26.5-59.2,59.2-59.2c20.2,0,38.8,10.1,49.7,27.1l7.3,11.3
	l7.3-11.3C270.7,208,289.3,197.8,309.5,197.8 M309.5,189.2c-23.9,0-44.9,12.4-57,31.1c-12.1-18.7-33.1-31.1-57-31.1
	c-37.5,0-67.8,30.4-67.8,67.8s30.4,67.8,67.8,67.8c23.9,0,44.9-12.4,57-31.1c12.1,18.7,33.1,31.1,57,31.1
	c37.5,0,67.8-30.4,67.8-67.8S346.9,189.2,309.5,189.2L309.5,189.2z"/>
<circle class="st1" cx="207.7" cy="286.6" r="33.9"/>
<circle class="st1" cx="290" cy="292.4" r="33.9"/>
<polygon class="st1" points="153.8,107.3 346.3,108.7 370.5,20 310,35.1 286.4,3 241.3,28.6 207,3 183.6,23.8 130.4,14.5 
	153.6,107.3 "/>
<ellipse class="st0" cx="251.8" cy="355.1" rx="63.5" ry="77.9"/>
<path class="st1" d="M251.8,281.5c32.6,0,59.2,33,59.2,73.6s-26.5,73.6-59.2,73.6s-59.2-33-59.2-73.6S219.1,281.5,251.8,281.5
	 M251.8,272.9c-37.5,0-67.8,36.8-67.8,82.3s30.4,82.3,67.8,82.3s67.8-36.8,67.8-82.3S289.2,272.9,251.8,272.9L251.8,272.9z"/>
</svg>
